<?xml version="1.0" standalone="no"?>
<!DOCTYPE svg PUBLIC "-//W3C//DTD SVG 20010904//EN"
 "http://www.w3.org/TR/2001/REC-SVG-20010904/DTD/svg10.dtd">
<svg version="1.0" xmlns="http://www.w3.org/2000/svg"
 width="300.000000pt" height="111.000000pt" viewBox="0 0 300.000000 111.000000"
 preserveAspectRatio="xMidYMid meet">
<metadata>
Created by potrace 1.10, written by Peter Selinger 2001-2011
</metadata>
<g transform="translate(0.000000,111.000000) scale(0.100000,-0.100000)"
fill="#000000" stroke="none">
<path d="M280 618 l0 -213 75 0 75 0 0 213 0 212 -75 0 -75 0 0 -212z m130
163 c11 -22 13 -126 4 -248 -6 -73 -9 -82 -31 -92 -32 -15 -39 -14 -57 5 -13
13 -16 43 -16 173 0 109 4 161 12 169 20 20 76 15 88 -7z"/>
<path d="M510 763 c35 -38 69 -74 75 -81 8 -9 11 8 12 68 l0 80 -75 0 -75 0
63 -67z m60 6 c0 -10 -6 -19 -14 -19 -19 0 -28 14 -20 33 8 21 34 10 34 -14z"/>
<path d="M1590 825 c0 -2 37 -87 83 -187 46 -101 87 -193 93 -206 8 -21 16
-23 87 -25 49 -2 77 1 77 8 0 6 -38 97 -85 203 -47 106 -85 197 -85 202 0 6
-37 10 -85 10 -47 0 -85 -2 -85 -5z m158 -47 c33 -36 142 -281 142 -320 0 -31
-70 -37 -106 -8 -39 33 -155 315 -139 340 12 20 80 11 103 -12z"/>
<path d="M1790 822 c0 -4 4 -12 9 -17 13 -14 111 -234 111 -250 0 -8 4 -17 10
-20 6 -4 9 50 9 145 l0 150 -69 0 c-39 0 -70 -4 -70 -8z m110 -42 c12 -23 10
-140 -2 -140 -12 0 -69 133 -64 147 8 21 54 16 66 -7z"/>
<path d="M2000 615 l0 -215 73 0 72 0 0 215 0 215 -72 0 -73 0 0 -215z m114
179 c14 -5 16 -30 16 -174 0 -183 -1 -187 -57 -188 -53 -1 -57 13 -58 189 0
131 3 161 15 169 17 11 61 13 84 4z"/>
<path d="M2206 778 c27 -29 62 -69 77 -88 l27 -35 0 88 0 87 -76 0 -77 0 49
-52z m68 16 c10 -4 16 -18 16 -35 0 -35 -4 -36 -36 -4 -33 33 -22 55 20 39z"/>
<path d="M2360 751 c0 -44 -3 -86 -6 -95 -3 -9 -1 -16 5 -16 6 0 11 6 11 13 0
6 18 48 40 91 22 44 40 81 40 83 0 2 -20 3 -45 3 l-45 0 0 -79z"/>
<path d="M2460 617 l0 -213 77 2 c43 1 77 5 76 8 -2 3 -3 98 -3 211 l0 205
-74 0 -75 0 -1 -213z m128 171 c16 -20 3 -326 -15 -344 -13 -13 -50 -13 -71 0
-15 9 -25 325 -11 342 14 17 83 19 97 2z"/>
<path d="M2669 735 c25 -52 50 -94 55 -95 4 0 5 7 2 16 -3 9 -6 51 -6 95 l0
79 -49 0 -48 0 46 -95z"/>
<path d="M650 715 c0 0 -1 -70 -1 -155 l-1 -154 56 -1 56 -1 0 155 0 156 -55
0 c-30 0 -55 0 -55 0z m80 -35 c11 -7 14 -26 13 -77 -4 -107 -16 -157 -37
-161 -30 -6 -36 16 -36 136 0 110 0 112 23 112 12 0 29 -5 37 -10z"/>
<path d="M792 698 c-22 -22 -15 -76 13 -94 51 -33 103 23 76 82 -8 18 -18 24
-44 24 -18 0 -38 -5 -45 -12z m56 -30 c18 -18 14 -38 -7 -38 -29 0 -51 11 -51
25 0 23 39 32 58 13z"/>
<path d="M1000 697 c-75 -38 -101 -185 -43 -249 16 -18 92 -63 94 -56 0 2 1
74 2 161 2 171 2 172 -53 144z m24 -33 c13 -5 16 -24 16 -108 0 -57 -3 -105
-6 -108 -10 -11 -39 4 -58 30 -12 15 -22 48 -24 79 -4 49 -2 57 24 84 15 16
29 29 30 29 1 0 9 -3 18 -6z"/>
<path d="M1090 678 c0 -18 5 -40 10 -48 8 -12 10 -11 10 7 0 32 14 36 45 11
57 -45 65 -109 21 -175 -27 -41 -66 -46 -66 -8 0 47 -16 25 -19 -26 -2 -49 -1
-50 21 -44 73 22 103 67 103 155 0 75 -17 109 -68 140 -45 28 -57 25 -57 -12z"/>
<path d="M1424 699 c-2 -3 0 -26 5 -50 6 -28 9 -35 10 -18 1 32 18 49 48 49
36 0 45 -39 39 -170 -6 -137 -10 -154 -44 -176 -22 -14 -27 -15 -36 -2 -9 12
-14 9 -27 -19 l-16 -33 34 0 c26 0 43 8 69 34 l34 34 0 178 0 179 -56 0 c-31
0 -58 -3 -60 -6z"/>
<path d="M491 658 l-43 -41 43 -38 c24 -21 46 -38 49 -39 3 0 4 26 2 57 -5
111 -2 107 -51 61z"/>
<path d="M1294 666 c-32 -32 -34 -38 -34 -105 0 -63 3 -74 28 -101 17 -20 40
-33 65 -37 35 -5 37 -4 37 21 0 16 -4 25 -10 21 -5 -3 -10 -12 -10 -20 0 -24
-48 -2 -75 34 -48 66 -20 170 50 183 26 5 30 -3 25 -46 -1 -11 3 -15 9 -12 6
4 11 27 11 52 0 43 -1 44 -31 44 -22 0 -41 -10 -65 -34z"/>
<path d="M1602 628 c4 -40 5 -108 2 -150 l-7 -78 67 0 c36 0 66 4 66 8 0 5
-11 30 -24 58 -13 27 -40 87 -61 134 -21 47 -41 88 -44 93 -4 4 -4 -25 1 -65z
m68 -115 c28 -76 27 -85 -12 -81 l-33 3 -2 85 c-3 77 -2 83 12 66 8 -11 24
-44 35 -73z"/>
<path d="M2202 658 l-42 -44 40 -39 c22 -21 42 -36 45 -33 3 3 5 40 3 82 l-3
77 -43 -43z m28 -37 c-1 -17 -17 -29 -29 -21 -19 11 -6 41 14 34 8 -3 15 -9
15 -13z"/>
<path d="M2240 497 c-36 -45 -66 -85 -68 -89 -2 -5 28 -8 67 -8 l71 0 0 90 c0
50 -1 90 -2 90 -2 0 -32 -37 -68 -83z m40 -30 c0 -14 -20 -37 -32 -37 -10 0
-11 34 -1 43 11 12 33 8 33 -6z"/>
<path d="M1284 374 c-35 -53 21 -113 81 -86 20 9 25 19 25 50 0 47 -14 62 -57
62 -24 0 -37 -7 -49 -26z m80 10 c18 -7 22 -49 5 -59 -21 -14 -59 5 -59 29 0
35 17 44 54 30z"/>
</g>
</svg>
